<?xml version="1.0" standalone="no"?>
<!DOCTYPE svg PUBLIC "-//W3C//DTD SVG 20010904//EN"
 "http://www.w3.org/TR/2001/REC-SVG-20010904/DTD/svg10.dtd">
<svg version="1.0" xmlns="http://www.w3.org/2000/svg"
 width="376.000000pt" height="376.000000pt" viewBox="0 0 376.000000 376.000000"
 preserveAspectRatio="xMidYMid meet">
<metadata>
Created by potrace 1.11, written by Peter Selinger 2001-2013
</metadata>
<g transform="translate(0.000000,376.000000) scale(0.100000,-0.100000)"
fill="#000000" stroke="none">
<path d="M0 1880 l0 -1880 1880 0 1880 0 0 1880 0 1880 -1880 0 -1880 0 0
-1880z m2665 945 c202 -53 335 -256 295 -452 -35 -168 -170 -300 -330 -321
-127 -18 -243 19 -333 107 -222 212 -125 585 173 665 72 19 123 19 195 1z
m-1207 -537 l2 -528 105 0 105 0 0 -185 0 -185 -105 0 -105 0 0 -160 0 -160
-210 0 -210 0 0 160 0 160 -435 0 -435 0 0 195 0 195 437 520 438 520 205 -2
205 -3 3 -527z m1232 -325 c0 -4 -10 -37 -22 -75 l-22 -68 -76 0 -76 0 -22 68
c-12 38 -22 71 -22 75 0 4 54 7 120 7 66 0 120 -3 120 -7z m434 -132 c115 -57
188 -115 216 -172 18 -34 20 -59 20 -254 l0 -215 35 0 c31 0 35 -3 35 -25 l0
-25 -840 0 -840 0 0 25 c0 16 6 25 15 25 13 0 15 31 15 218 0 251 4 265 95
334 94 71 351 188 414 188 13 0 22 -55 55 -343 21 -188 41 -354 43 -369 5 -28
6 -28 86 -28 l80 0 -45 47 -44 48 18 240 c9 132 17 241 17 243 1 1 33 2 71 2
39 0 70 -1 71 -2 0 -2 8 -111 18 -243 l18 -240 -46 -47 -45 -48 81 0 81 0 5
33 c4 17 23 181 42 362 20 182 38 335 40 342 6 18 171 -37 289 -96z"/>
<path d="M809 2030 l-226 -265 225 -3 c124 -1 227 -1 229 1 2 2 2 123 1 268
l-3 265 -226 -266z"/>
<path d="M2940 1475 l0 -25 125 0 125 0 0 25 0 25 -125 0 -125 0 0 -25z"/>
</g>
</svg>
